<?xml version="1.0" encoding="UTF-8" standalone="no"?>
<!DOCTYPE svg PUBLIC "-//W3C//DTD SVG 1.1//EN" "http://www.w3.org/Graphics/SVG/1.1/DTD/svg11.dtd">
<svg width="100%" height="100%" viewBox="0 0 2681 568" version="1.1" xmlns="http://www.w3.org/2000/svg" xmlns:xlink="http://www.w3.org/1999/xlink" xml:space="preserve" xmlns:serif="http://www.serif.com/" style="fill-rule:evenodd;clip-rule:evenodd;stroke-linejoin:round;stroke-miterlimit:2;">
    <g transform="matrix(5.55556,0,0,5.55556,-3214.47,-2716.45)">
        <g transform="matrix(1,0,0,1,-306.421,153.248)">
            <g>
                <g transform="matrix(0.3367,0,0,0.3367,936.576,216.887)">
                    <path d="M1109,559L1145,571L1131.5,597" style="fill:rgb(171,171,171);"/>
                    <path d="M1109,559L1280,380C1280,380 1249.48,533.298 1239.28,584.542C1238.45,588.714 1235.87,592.329 1232.19,594.471C1228.52,596.613 1224.1,597.078 1220.06,595.746C1193.97,587.144 1145,571 1145,571L1109,559Z" style="fill:white;"/>
                    <path d="M1112,629L1131.5,597L1109,559" style="fill:rgb(211,202,203);"/>
                    <path d="M1280,380C1280,380 1094.18,466.966 1016.5,503.32C1011.01,505.892 1007.63,511.545 1007.97,517.601C1008.31,523.657 1012.3,528.898 1018.04,530.839C1037.17,537.302 1057,544 1057,544L1280,380Z" style="fill:white;"/>
                    <path d="M1057,544L1112,629L1109,559L1280,380L1057,544Z" style="fill:rgb(229,229,229);"/>
                </g>
                <path d="M921.889,337.009C943.615,337.009 954.559,353.845 954.559,370.687C954.559,387.535 943.615,404.239 921.889,404.239L899.699,404.239L899.699,437.791L885.025,437.791L885.025,337.009L921.889,337.009ZM1081.73,337.009C1103.45,337.009 1114.4,353.845 1114.4,370.687C1114.4,387.535 1103.45,404.239 1081.73,404.239L1059.54,404.239L1059.54,437.791L1044.87,437.791L1044.87,337.009L1081.73,337.009ZM1226.16,337.009C1248.03,337.009 1258.98,353.126 1258.98,369.103C1258.98,383.359 1250.19,396.895 1232.92,399.919L1264.74,437.791L1245.87,437.791L1209.15,393.583L1209.15,386.671L1226.16,386.671C1238.39,386.671 1244.43,377.887 1244.43,369.103C1244.43,360.463 1238.39,351.687 1226.16,351.687L1203.83,351.687L1203.83,437.791L1189.44,437.791L1189.44,337.009L1226.16,337.009ZM998.627,335.713L1039.09,437.791L1023.53,437.791L1011.44,408.137L975.306,408.137C971.419,417.345 966.381,429.439 963.213,437.791L947.521,437.791L987.974,335.713L998.627,335.713ZM1182.65,337.153L1182.65,351.687L1136,351.687L1136,380.048L1181.65,380.048L1181.65,394.742L1136,394.742L1136,423.261L1182.8,423.261L1182.8,437.791L1121.33,437.791L1121.33,337.153L1182.65,337.153ZM1005.83,394.465L993.445,358.897L980.776,394.465L1005.83,394.465ZM921.889,389.839C934.118,389.839 940.161,380.335 940.161,370.831C940.161,361.183 934.118,351.687 921.889,351.687L899.699,351.687L899.699,389.839L921.889,389.839ZM1081.73,389.839C1093.96,389.839 1100,380.335 1100,370.831C1100,361.183 1093.96,351.687 1081.73,351.687L1059.54,351.687L1059.54,389.839L1081.73,389.839Z" style="fill:white;fill-rule:nonzero;"/>
            </g>
        </g>
    </g>
</svg>
